<svg xmlns="http://www.w3.org/2000/svg" xmlns:xlink="http://www.w3.org/1999/xlink" width="40.143" height="40.805" viewBox="0 0 40.143 40.805"><defs><style>.a,.d{fill:none;}.b{clip-path:url(#a);}.c{fill:#fff;}.d{stroke:#fff;}.e{stroke:none;}</style><clipPath id="a"><rect class="a" width="40.143" height="40.805"/></clipPath></defs><g class="b"><g transform="translate(11.374 10.201)"><g transform="translate(0 0)"><path class="c" d="M89.633,23.153,85.059,18.5a.728.728,0,0,0-.536-.23.819.819,0,0,0-.3.06.724.724,0,0,0-.465.714v2.325H81.854a19.154,19.154,0,0,0-2.341.133,12.445,12.445,0,0,0-1.9.369,7.659,7.659,0,0,0-1.483.587A6.335,6.335,0,0,0,75,23.208a4.693,4.693,0,0,0-.816.9,5.583,5.583,0,0,0-.56.987,5.769,5.769,0,0,0-.333,1.066,8.48,8.48,0,0,0-.167,1.09q-.042.509-.042,1.1a5.886,5.886,0,0,0,.209,1.478,9.748,9.748,0,0,0,.459,1.38q.25.581.59,1.2t.471.829q.131.206.25.375a.371.371,0,0,0,.31.157.637.637,0,0,0,.143-.024.374.374,0,0,0,.238-.412q-.536-4.069.882-5.728,1.37-1.586,5.218-1.586H83.76v2.325a.724.724,0,0,0,.465.715.816.816,0,0,0,.3.06.7.7,0,0,0,.536-.23l4.575-4.65a.769.769,0,0,0,0-1.09Z" transform="translate(-70.036 -18.273)"/><path class="c" d="M16.523,64.894a.35.35,0,0,0-.417.1,2.51,2.51,0,0,1-.643.448.382.382,0,0,0-.215.351v2.592a1.881,1.881,0,0,1-.56,1.368,1.821,1.821,0,0,1-1.346.569H3.431a1.821,1.821,0,0,1-1.346-.569,1.881,1.881,0,0,1-.56-1.368V58.306a1.881,1.881,0,0,1,.56-1.368,1.82,1.82,0,0,1,1.346-.569H4.765a.543.543,0,0,0,.191-.048,7.893,7.893,0,0,1,1.584-.727.352.352,0,0,0,.31-.387.376.376,0,0,0-.113-.272.364.364,0,0,0-.268-.115H3.431a3.278,3.278,0,0,0-2.424,1.023A3.387,3.387,0,0,0,0,58.306V68.381a3.387,3.387,0,0,0,1.007,2.464,3.278,3.278,0,0,0,2.424,1.023h9.912a3.278,3.278,0,0,0,2.424-1.023,3.387,3.387,0,0,0,1.007-2.464V65.245A.366.366,0,0,0,16.523,64.894Z" transform="translate(0 -53.269)"/></g></g><g class="d"><ellipse class="e" cx="20.072" cy="20.402" rx="20.072" ry="20.402"/><ellipse class="a" cx="20.072" cy="20.402" rx="19.572" ry="19.902"/></g></g></svg>